<mxfile host="app.diagrams.net" modified="2023-07-22T05:31:05.157Z" agent="Mozilla/5.0 (Windows NT 10.0; Win64; x64) AppleWebKit/537.36 (KHTML, like Gecko) Chrome/114.0.0.0 Safari/537.36 Edg/114.0.1823.82" version="21.6.5" etag="MSRuKS5D5EXIIQ3dCdEL" type="github">
  <diagram name="第 1 页" id="EY3_aisOXdH9Kx0FkYBI">
    <mxGraphModel>
      <root>
        <mxCell id="0" />
        <mxCell id="1" parent="0" />
      </root>
    </mxGraphModel>
  </diagram>
</mxfile>
